<?xml version="1.0" encoding="UTF-8" standalone="no"?>
<svg xmlns:dc="http://purl.org/dc/elements/1.1/" xmlns:cc="http://creativecommons.org/ns#" xmlns:rdf="http://www.w3.org/1999/02/22-rdf-syntax-ns#" xmlns:svg="http://www.w3.org/2000/svg" xmlns="http://www.w3.org/2000/svg" version="1.1" id="svg4031" viewBox="0 0 500.00001 99.948969" height="99.948967" width="500">
    <defs id="defs4033">
        <clipPath id="clipPath3698" clipPathUnits="userSpaceOnUse">
            <path id="path3700" d="m 382.677,778.155 184.252,0 0,35.343 -184.252,0 0,-35.343 z"/>
        </clipPath>
        <clipPath id="clipPath3706" clipPathUnits="userSpaceOnUse">
            <path id="path3708" d="m 532.617,812.373 32.062,0 0,-33.555 -32.062,0 0,33.555 z"/>
        </clipPath>
        <clipPath id="clipPath3714" clipPathUnits="userSpaceOnUse">
            <path id="path3716" d="m 538.34327,819.91957 35.53082,-16.56829 -14.92139,-31.99903 -35.53083,16.56829 14.9214,31.99903 z"/>
        </clipPath>
        <linearGradient id="linearGradient3718" spreadMethod="pad" gradientTransform="matrix(31.953242,-14.900042,-14.900042,-31.953242,533.9822,804.84993)" gradientUnits="userSpaceOnUse" y2="0" x2="1" y1="0" x1="0">
            <stop id="stop3720" offset="0" style="stop-opacity:1;stop-color:#7d7d7d"/>
            <stop id="stop3722" offset="0.681319" style="stop-opacity:1;stop-color:#f4f4f4"/>
            <stop id="stop3724" offset="1" style="stop-opacity:1;stop-color:#9fa0a0"/>
        </linearGradient>
        <clipPath id="clipPath3730" clipPathUnits="userSpaceOnUse">
            <path id="path3732" d="m 527.77701,784.8113 16.39236,35.15352 29.13353,-13.58518 -16.39236,-35.15353 -29.13353,13.58519 z"/>
        </clipPath>
        <linearGradient id="linearGradient3734" spreadMethod="pad" gradientTransform="matrix(14.939187,32.037186,32.037186,-14.939187,545.42142,778.11339)" gradientUnits="userSpaceOnUse" y2="0" x2="1" y1="0" x1="0">
            <stop id="stop3736" offset="0" style="stop-opacity:1;stop-color:#7d7d7d"/>
            <stop id="stop3738" offset="0.791209" style="stop-opacity:1;stop-color:#f4f4f4"/>
            <stop id="stop3740" offset="1" style="stop-opacity:1;stop-color:#9fa0a0"/>
        </linearGradient>
        <clipPath id="clipPath3678" clipPathUnits="userSpaceOnUse">
            <path id="path3680" d="m 532.21251,812.80478 32.95166,0 0,-34.30166 -32.95166,0 0,34.30166 z"/>
        </clipPath>
        <radialGradient id="radialGradient3682" spreadMethod="pad" gradientTransform="matrix(25.24132,0,0,-25.24132,557.20498,797.11233)" gradientUnits="userSpaceOnUse" r="1" cy="0" cx="0" fy="0" fx="0">
            <stop id="stop3684" offset="0" style="stop-opacity:1;stop-color:#ffffff"/>
            <stop id="stop3686" offset="0.318681" style="stop-opacity:1;stop-color:#f7f8f8"/>
            <stop id="stop3688" offset="0.796703" style="stop-opacity:1;stop-color:#e0e1e1"/>
            <stop id="stop3690" offset="1" style="stop-opacity:1;stop-color:#d3d3d4"/>
        </radialGradient>
        <clipPath id="clipPath3448" clipPathUnits="userSpaceOnUse">
            <path id="path3450" d="m 382.677,778.155 184.252,0 0,35.343 -184.252,0 0,-35.343 z"/>
        </clipPath>
        <clipPath id="clipPath3616" clipPathUnits="userSpaceOnUse">
            <path id="path3618" d="m 531.587,813.499 35.342,0 0,-35.344 -35.342,0 0,35.344 z"/>
        </clipPath>
        <clipPath id="clipPath3620" clipPathUnits="userSpaceOnUse">
            <path id="path3622" d="m 531.587,778.155 35.342,0 0,35.343 -35.342,0 0,-35.343 z"/>
        </clipPath>
        <clipPath id="clipPath3628" clipPathUnits="userSpaceOnUse">
            <path id="path3630" d="m 516.69603,790.04715 26.81232,38.28966 38.29002,-26.81257 -26.81232,-38.28966 -38.29002,26.81257 z"/>
        </clipPath>
        <linearGradient id="linearGradient3632" spreadMethod="pad" gradientTransform="matrix(19.249404,27.489344,27.489344,-19.249404,539.62428,782.04164)" gradientUnits="userSpaceOnUse" y2="0" x2="1" y1="0" x1="0">
            <stop id="stop3634" offset="0" style="stop-opacity:1;stop-color:#e15542"/>
            <stop id="stop3636" offset="0.252747" style="stop-opacity:1;stop-color:#da1025"/>
            <stop id="stop3638" offset="1" style="stop-opacity:1;stop-color:#f7cfc0"/>
        </linearGradient>
        <clipPath id="clipPath3430" clipPathUnits="userSpaceOnUse">
            <path id="path3432" d="m 531.58664,813.49829 35.34248,0 0,-35.34241 -35.34248,0 0,35.34241 z"/>
        </clipPath>
        <radialGradient id="radialGradient3434" spreadMethod="pad" gradientTransform="matrix(17.671294,0,0,-17.671294,549.25811,795.82701)" gradientUnits="userSpaceOnUse" r="1" cy="0" cx="0" fy="0" fx="0">
            <stop id="stop3436" offset="0" style="stop-opacity:1;stop-color:#ffffff"/>
            <stop id="stop3438" offset="0.840659" style="stop-opacity:1;stop-color:#ffffff"/>
            <stop id="stop3440" offset="1" style="stop-opacity:1;stop-color:#c9caca"/>
        </radialGradient>
    </defs>
    <metadata id="metadata4036">
        <rdf:RDF>
            <cc:Work rdf:about="">
                <dc:format>image/svg+xml</dc:format>
                <dc:type rdf:resource="http://purl.org/dc/dcmitype/StillImage"/>
                <dc:title/>
            </cc:Work>
        </rdf:RDF>
    </metadata>
    <g transform="translate(-183.59635,-406.06701)" id="layer1">
        <g id="g3416" transform="matrix(2.686538,0,0,-2.686538,-841.97995,2594.0603)">
            <g id="g3418">
                <g id="g3424">
                    <g id="g3426">
                        <g clip-path="url(#clipPath3430)" id="g3428">
                            <path id="path3442" style="fill:url(#radialGradient3434);stroke:none" d="m 531.587,795.828 c 0,-9.761 7.91,-17.672 17.67,-17.672 l 0,0 c 9.76,0 17.672,7.911 17.672,17.672 l 0,0 c 0,9.759 -7.912,17.67 -17.672,17.67 l 0,0 c -9.76,0 -17.67,-7.911 -17.67,-17.67"/>
                        </g>
                    </g>
                </g>
            </g>
        </g>
        <g id="g3444" transform="matrix(2.686538,0,0,-2.686538,-841.97995,2594.0603)">
            <g clip-path="url(#clipPath3448)" id="g3446">
                <g transform="translate(536.9352,803.5891)" id="g3452">
                    <path id="path3454" style="fill:#ffffff;fill-opacity:1;fill-rule:nonzero;stroke:none" d="M 0,0 C 4.26,6.746 13.227,8.73 20.031,4.435 26.835,0.139 28.899,-8.812 24.64,-15.557 20.381,-22.303 11.413,-24.288 4.609,-19.991 -2.195,-15.697 -4.258,-6.744 0,0"/>
                </g>
                <g transform="translate(537.1202,803.5844)" id="g3456">
                    <path id="path3458" style="fill:#ffffff;fill-opacity:1;fill-rule:nonzero;stroke:none" d="m 0,0 c 4.178,6.616 13.04,8.559 19.771,4.31 6.732,-4.25 8.782,-13.085 4.605,-19.7 -4.177,-6.616 -13.02,-8.533 -19.751,-4.283 C -2.105,-15.425 -4.176,-6.615 0,0"/>
                </g>
                <g transform="translate(537.3057,803.5798)" id="g3460">
                    <path id="path3462" style="fill:#fefefe;fill-opacity:1;fill-rule:nonzero;stroke:none" d="m 0,0 c 4.096,6.486 12.853,8.388 19.511,4.185 6.658,-4.204 8.696,-12.923 4.6,-19.409 C 20.016,-21.71 11.299,-23.56 4.641,-19.355 -2.017,-15.153 -4.095,-6.485 0,0"/>
                </g>
                <g transform="translate(537.4912,803.5748)" id="g3464">
                    <path id="path3466" style="fill:#fefefe;fill-opacity:1;fill-rule:nonzero;stroke:none" d="M 0,0 C 4.013,6.357 12.666,8.217 19.251,4.06 25.836,-0.098 27.86,-8.701 23.847,-15.057 19.834,-21.413 11.242,-23.194 4.657,-19.036 -1.928,-14.88 -4.013,-6.355 0,0"/>
                </g>
                <g transform="translate(537.6762,803.5701)" id="g3468">
                    <path id="path3470" style="fill:#fdfdfd;fill-opacity:1;fill-rule:nonzero;stroke:none" d="M 0,0 C 3.932,6.227 12.479,8.046 18.991,3.935 25.503,-0.177 27.514,-8.664 23.583,-14.89 19.652,-21.116 11.186,-22.83 4.673,-18.718 -1.838,-14.608 -3.931,-6.226 0,0"/>
                </g>
                <g transform="translate(537.8617,803.5656)" id="g3472">
                    <path id="path3474" style="fill:#fdfdfd;fill-opacity:1;fill-rule:nonzero;stroke:none" d="m 0,0 c 3.85,6.097 12.292,7.875 18.731,3.81 6.44,-4.066 8.437,-12.436 4.587,-18.533 C 19.469,-20.82 11.129,-22.466 4.689,-18.4 -1.749,-14.336 -3.849,-6.096 0,0"/>
                </g>
                <g transform="translate(538.0468,803.5608)" id="g3476">
                    <path id="path3478" style="fill:#fcfcfc;fill-opacity:1;fill-rule:nonzero;stroke:none" d="m 0,0 c 3.768,5.967 12.105,7.703 18.472,3.685 6.365,-4.02 8.35,-12.274 4.582,-18.241 C 19.287,-20.523 11.072,-22.101 4.706,-18.081 -1.66,-14.064 -3.767,-5.966 0,0"/>
                </g>
                <g transform="translate(538.2322,803.5563)" id="g3480">
                    <path id="path3482" style="fill:#fbfbfb;fill-opacity:1;fill-rule:nonzero;stroke:none" d="M 0,0 C 3.686,5.837 11.919,7.532 18.212,3.56 24.504,-0.414 26.476,-8.553 22.79,-14.389 19.105,-20.227 11.015,-21.738 4.722,-17.763 -1.571,-13.792 -3.685,-5.836 0,0"/>
                </g>
                <g transform="translate(538.4177,803.5515)" id="g3484">
                    <path id="path3486" style="fill:#fbfbfb;fill-opacity:1;fill-rule:nonzero;stroke:none" d="m 0,0 c 3.603,5.707 11.731,7.361 17.951,3.434 6.22,-3.927 8.178,-11.949 4.575,-17.656 C 18.922,-19.931 10.958,-21.373 4.738,-17.445 -1.482,-13.52 -3.603,-5.707 0,0"/>
                </g>
                <g transform="translate(538.6027,803.5465)" id="g3488">
                    <path id="path3490" style="fill:#fafafa;fill-opacity:1;fill-rule:nonzero;stroke:none" d="m 0,0 c 3.522,5.578 11.545,7.19 17.692,3.309 6.147,-3.881 8.091,-11.787 4.57,-17.364 C 18.74,-19.634 10.901,-21.008 4.754,-17.126 -1.392,-13.247 -3.522,-5.577 0,0"/>
                </g>
                <g transform="translate(538.7882,803.5421)" id="g3492">
                    <path id="path3494" style="fill:#f9fafa;fill-opacity:1;fill-rule:nonzero;stroke:none" d="M 0,0 C 3.44,5.448 11.358,7.019 17.432,3.184 23.505,-0.651 25.437,-8.441 21.997,-13.889 18.557,-19.338 10.844,-20.644 4.77,-16.808 -1.304,-12.975 -3.44,-5.447 0,0"/>
                </g>
                <g transform="translate(538.9732,803.5372)" id="g3496">
                    <path id="path3498" style="fill:#f9f9f9;fill-opacity:1;fill-rule:nonzero;stroke:none" d="M 0,0 C 3.358,5.318 11.171,6.848 17.172,3.059 23.173,-0.73 25.092,-8.403 21.733,-13.722 18.375,-19.041 10.787,-20.28 4.786,-16.49 -1.215,-12.703 -3.358,-5.317 0,0"/>
                </g>
                <g transform="translate(539.1587,803.5325)" id="g3500">
                    <path id="path3502" style="fill:#f8f8f8;fill-opacity:1;fill-rule:nonzero;stroke:none" d="m 0,0 c 3.277,5.188 10.984,6.677 16.912,2.934 5.927,-3.743 7.833,-11.3 4.556,-16.489 C 18.192,-18.744 10.731,-19.916 4.802,-16.172 -1.126,-12.43 -3.277,-5.188 0,0"/>
                </g>
                <g transform="translate(539.3437,803.528)" id="g3504">
                    <path id="path3506" style="fill:#f7f8f8;fill-opacity:1;fill-rule:nonzero;stroke:none" d="m 0,0 c 3.195,5.059 10.797,6.505 16.652,2.809 5.855,-3.697 7.747,-11.138 4.552,-16.197 -3.194,-5.06 -10.53,-6.163 -16.385,-2.465 C -1.036,-12.158 -3.194,-5.058 0,0"/>
                </g>
                <g transform="translate(539.5292,803.523)" id="g3508">
                    <path id="path3510" style="fill:#f7f7f7;fill-opacity:1;fill-rule:nonzero;stroke:none" d="M 0,0 C 3.113,4.929 10.61,6.335 16.392,2.684 22.173,-0.967 24.053,-8.292 20.94,-13.221 17.828,-18.151 10.617,-19.187 4.835,-15.535 -0.947,-11.886 -3.113,-4.928 0,0"/>
                </g>
                <g transform="translate(539.7141,803.5182)" id="g3512">
                    <path id="path3514" style="fill:#f6f6f6;fill-opacity:1;fill-rule:nonzero;stroke:none" d="m 0,0 c 3.031,4.799 10.423,6.163 16.133,2.559 5.708,-3.605 7.574,-10.814 4.543,-15.614 -3.03,-4.8 -10.115,-5.767 -15.825,-2.162 C -0.858,-11.614 -3.031,-4.799 0,0"/>
                </g>
                <g transform="translate(539.8997,803.5137)" id="g3516">
                    <path id="path3518" style="fill:#f5f6f6;fill-opacity:1;fill-rule:nonzero;stroke:none" d="m 0,0 c 2.949,4.669 10.237,5.992 15.872,2.434 5.636,-3.559 7.489,-10.652 4.539,-15.321 -2.948,-4.671 -9.908,-5.571 -15.544,-2.011 C -0.769,-11.342 -2.949,-4.669 0,0"/>
                </g>
                <g transform="translate(540.0847,803.509)" id="g3520">
                    <path id="path3522" style="fill:#f5f5f5;fill-opacity:1;fill-rule:nonzero;stroke:none" d="m 0,0 c 2.867,4.539 10.05,5.821 15.613,2.308 5.562,-3.512 7.402,-10.489 4.534,-15.029 -2.866,-4.54 -9.7,-5.373 -15.264,-1.859 C -0.68,-11.069 -2.867,-4.539 0,0"/>
                </g>
                <g transform="translate(540.2701,803.5042)" id="g3524">
                    <path id="path3526" style="fill:#f4f4f5;fill-opacity:1;fill-rule:nonzero;stroke:none" d="m 0,0 c 2.785,4.41 9.863,5.65 15.352,2.183 5.49,-3.466 7.316,-10.327 4.531,-14.737 C 17.099,-16.965 10.39,-17.729 4.899,-14.262 -0.591,-10.797 -2.785,-4.409 0,0"/>
                </g>
                <g transform="translate(540.4552,803.4997)" id="g3528">
                    <path id="path3530" style="fill:#f4f4f4;fill-opacity:1;fill-rule:nonzero;stroke:none" d="m 0,0 c 2.703,4.28 9.676,5.479 15.093,2.058 5.416,-3.42 7.229,-10.165 4.526,-14.445 -2.702,-4.282 -9.286,-4.979 -14.703,-1.557 C -0.501,-10.525 -2.703,-4.28 0,0"/>
                </g>
                <g transform="translate(540.6406,803.4947)" id="g3532">
                    <path id="path3534" style="fill:#f3f3f3;fill-opacity:1;fill-rule:nonzero;stroke:none" d="m 0,0 c 2.621,4.15 9.489,5.308 14.833,1.933 5.344,-3.374 7.143,-10.002 4.521,-14.153 -2.62,-4.152 -9.078,-4.781 -14.422,-1.405 C -0.412,-10.253 -2.621,-4.15 0,0"/>
                </g>
                <g transform="translate(540.8257,803.4902)" id="g3536">
                    <path id="path3538" style="fill:#f2f2f3;fill-opacity:1;fill-rule:nonzero;stroke:none" d="M 0,0 C 2.539,4.02 9.302,5.137 14.573,1.808 19.844,-1.52 21.63,-8.032 19.09,-12.053 16.552,-16.076 10.219,-16.637 4.948,-13.307 -0.323,-9.98 -2.539,-4.02 0,0"/>
                </g>
                <g transform="translate(541.0111,803.4854)" id="g3540">
                    <path id="path3542" style="fill:#f1f2f2;fill-opacity:1;fill-rule:nonzero;stroke:none" d="m 0,0 c 2.458,3.891 9.115,4.966 14.313,1.683 5.198,-3.282 6.971,-9.678 4.513,-13.569 C 16.37,-15.779 10.162,-16.272 4.964,-12.989 -0.234,-9.708 -2.457,-3.891 0,0"/>
                </g>
                <g transform="translate(541.1967,803.4807)" id="g3544">
                    <path id="path3546" style="fill:#f1f1f1;fill-opacity:1;fill-rule:nonzero;stroke:none" d="m 0,0 c 2.375,3.761 8.927,4.794 14.053,1.558 5.124,-3.236 6.884,-9.516 4.508,-13.277 C 16.187,-15.482 10.106,-15.908 4.98,-12.671 -0.145,-9.436 -2.376,-3.761 0,0"/>
                </g>
                <g transform="translate(541.3817,803.4759)" id="g3548">
                    <path id="path3550" style="fill:#f0f0f0;fill-opacity:1;fill-rule:nonzero;stroke:none" d="m 0,0 c 2.293,3.632 8.741,4.623 13.793,1.433 5.052,-3.19 6.799,-9.354 4.504,-12.986 -2.292,-3.633 -8.248,-3.99 -13.301,-0.799 C -0.056,-9.164 -2.293,-3.631 0,0"/>
                </g>
                <g transform="translate(541.5671,803.4714)" id="g3552">
                    <path id="path3554" style="fill:#eff0f0;fill-opacity:1;fill-rule:nonzero;stroke:none" d="m 0,0 c 2.212,3.501 8.554,4.452 13.533,1.308 4.979,-3.144 6.712,-9.192 4.5,-12.694 C 15.822,-14.89 9.992,-15.179 5.012,-12.034 0.033,-8.891 -2.212,-3.502 0,0"/>
                </g>
                <g transform="translate(541.7521,803.4667)" id="g3556">
                    <path id="path3558" style="fill:#efefef;fill-opacity:1;fill-rule:nonzero;stroke:none" d="M 0,0 C 2.13,3.372 8.367,4.281 13.274,1.183 18.179,-1.915 19.9,-7.847 17.769,-11.219 15.64,-14.593 9.935,-14.815 5.028,-11.716 0.123,-8.619 -2.13,-3.372 0,0"/>
                </g>
                <g transform="translate(541.9376,803.4619)" id="g3560">
                    <path id="path3562" style="fill:#eeeeee;fill-opacity:1;fill-rule:nonzero;stroke:none" d="m 0,0 c 2.047,3.242 8.18,4.11 13.014,1.058 4.832,-3.051 6.539,-8.868 4.49,-12.11 C 15.458,-14.296 9.878,-14.45 5.045,-11.398 0.212,-8.348 -2.048,-3.243 0,0"/>
                </g>
                <g transform="translate(542.1227,803.4571)" id="g3564">
                    <path id="path3566" style="fill:#edeeee;fill-opacity:1;fill-rule:nonzero;stroke:none" d="M 0,0 C 1.966,3.113 7.993,3.939 12.754,0.933 17.513,-2.072 19.207,-7.772 17.24,-10.885 15.276,-14 9.822,-14.086 5.061,-11.08 0.301,-8.075 -1.966,-3.113 0,0"/>
                </g>
                <g transform="translate(542.3081,803.4524)" id="g3568">
                    <path id="path3570" style="fill:#ededed;fill-opacity:1;fill-rule:nonzero;stroke:none" d="m 0,0 c 1.884,2.982 7.806,3.768 12.493,0.807 4.687,-2.959 6.368,-8.542 4.482,-11.525 -1.882,-2.985 -7.21,-3.004 -11.898,-0.043 C 0.39,-7.803 -1.884,-2.983 0,0"/>
                </g>
                <g transform="translate(542.4932,803.4476)" id="g3572">
                    <path id="path3574" style="fill:#ececed;fill-opacity:1;fill-rule:nonzero;stroke:none" d="m 0,0 c 1.802,2.853 7.62,3.597 12.234,0.682 4.613,-2.913 6.281,-8.38 4.477,-11.234 -1.8,-2.855 -7.003,-2.805 -11.618,0.109 C 0.479,-7.53 -1.802,-2.853 0,0"/>
                </g>
                <g transform="translate(542.6786,803.4431)" id="g3576">
                    <path id="path3578" style="fill:#ebecec;fill-opacity:1;fill-rule:nonzero;stroke:none" d="m 0,0 c 1.72,2.723 7.433,3.425 11.974,0.557 4.54,-2.866 6.195,-8.218 4.473,-10.942 -1.719,-2.725 -6.796,-2.608 -11.338,0.26 C 0.568,-7.259 -1.721,-2.723 0,0"/>
                </g>
                <g transform="translate(542.8636,803.4384)" id="g3580">
                    <path id="path3582" style="fill:#ebebeb;fill-opacity:1;fill-rule:nonzero;stroke:none" d="m 0,0 c 1.638,2.593 7.246,3.254 11.715,0.432 4.467,-2.82 6.108,-8.056 4.468,-10.65 C 14.547,-12.814 9.594,-12.629 5.125,-9.807 0.657,-6.986 -1.638,-2.594 0,0"/>
                </g>
                <g transform="translate(543.0491,803.4336)" id="g3584">
                    <path id="path3586" style="fill:#eaeaeb;fill-opacity:1;fill-rule:nonzero;stroke:none" d="m 0,0 c 1.556,2.464 7.059,3.083 11.454,0.307 4.395,-2.774 6.023,-7.894 4.465,-10.358 C 14.364,-12.517 9.537,-12.265 5.142,-9.488 0.746,-6.714 -1.557,-2.464 0,0"/>
                </g>
                <g transform="translate(543.2341,803.4288)" id="g3588">
                    <path id="path3590" style="fill:#e9eaea;fill-opacity:1;fill-rule:nonzero;stroke:none" d="m 0,0 c 1.474,2.334 6.872,2.912 11.195,0.182 4.32,-2.729 5.936,-7.732 4.46,-10.066 C 14.182,-12.221 9.481,-11.9 5.158,-9.17 0.836,-6.442 -1.474,-2.334 0,0"/>
                </g>
                <g transform="translate(543.4196,803.4241)" id="g3592">
                    <path id="path3594" style="fill:#e9e9e9;fill-opacity:1;fill-rule:nonzero;stroke:none" d="m 0,0 c 1.392,2.204 6.685,2.741 10.935,0.057 4.248,-2.682 5.85,-7.57 4.456,-9.774 C 13.999,-11.924 9.424,-11.536 5.174,-8.852 0.924,-6.17 -1.393,-2.204 0,0"/>
                </g>
                <g transform="translate(543.6046,803.4193)" id="g3596">
                    <path id="path3598" style="fill:#e8e8e9;fill-opacity:1;fill-rule:nonzero;stroke:none" d="M 0,0 C 1.311,2.074 6.498,2.57 10.675,-0.068 14.85,-2.704 16.439,-7.476 15.126,-9.55 13.817,-11.628 9.367,-11.171 5.19,-8.533 1.014,-5.897 -1.311,-2.075 0,0"/>
                </g>
                <g transform="translate(543.7901,803.4148)" id="g3600">
                    <path id="path3602" style="fill:#e7e8e8;fill-opacity:1;fill-rule:nonzero;stroke:none" d="m 0,0 c 1.228,1.945 6.311,2.399 10.415,-0.193 4.102,-2.59 5.677,-7.246 4.447,-9.191 C 13.635,-11.331 9.31,-10.807 5.206,-8.215 1.103,-5.625 -1.229,-1.945 0,0"/>
                </g>
                <g transform="translate(543.9751,803.41)" id="g3604">
                    <path id="path3606" style="fill:#e7e7e7;fill-opacity:1;fill-rule:nonzero;stroke:none" d="m 0,0 c 1.147,1.815 6.124,2.228 10.155,-0.318 4.029,-2.544 5.591,-7.083 4.443,-8.899 -1.145,-1.817 -5.345,-1.226 -9.375,1.32 C 1.192,-5.353 -1.147,-1.816 0,0"/>
                </g>
                <g transform="translate(544.1606,803.4053)" id="g3608">
                    <path id="path3610" style="fill:#e6e6e6;fill-opacity:1;fill-rule:nonzero;stroke:none" d="M 0,0 C 1.065,1.685 5.937,2.057 9.895,-0.444 13.851,-2.942 15.4,-7.364 14.333,-9.05 13.27,-10.738 9.196,-10.078 5.239,-7.578 1.281,-5.081 -1.066,-1.686 0,0"/>
                </g>
                <g id="g3612">
                    <g id="g3614"/>
                    <g id="g3640">
                        <g id="g3642" clip-path="url(#clipPath3616)">
                            <g id="g3644">
                                <g id="g3646" clip-path="url(#clipPath3620)">
                                    <g id="g3648" transform="translate(566.9292,795.8275)">
                                        <path id="path3650" style="fill:#da1125;fill-opacity:1;fill-rule:nonzero;stroke:none" d="m 0,0 c 0,9.76 -7.912,17.671 -17.672,17.671 -9.76,0 -17.67,-7.911 -17.67,-17.671 0,-9.76 7.91,-17.672 17.67,-17.672 C -7.912,-17.672 0,-9.76 0,0"/>
                                    </g>
                                </g>
                            </g>
                            <g id="g3652">
                                <g id="g3654">
                                    <g id="g3656">
                                        <g id="g3658">
                                            <g id="g3660" clip-path="url(#clipPath3628)">
                                                <path id="path3662" style="fill:url(#linearGradient3632);stroke:none" d="m 532.471,795.794 c -0.006,-9.267 7.505,-16.782 16.77,-16.786 l 0,0 c 9.268,-0.003 16.782,7.506 16.786,16.773 l 0,0 c 0.002,9.266 -7.505,16.779 -16.772,16.783 l 0,0 c -9.268,0.003 -16.781,-7.506 -16.784,-16.77"/>
                                            </g>
                                        </g>
                                    </g>
                                </g>
                            </g>
                        </g>
                    </g>
                </g>
            </g>
        </g>
        <g id="g3664" transform="matrix(2.686538,0,0,-2.686538,-841.97995,2594.0603)">
            <g id="g3666">
                <g id="g3672">
                    <g id="g3674">
                        <g clip-path="url(#clipPath3678)" id="g3676">
                            <path id="path3692" style="fill:url(#radialGradient3682);stroke:none" d="m 555.493,808.496 c 0,-1.399 -0.125,-2.822 -0.355,-4.248 l 0,0 c -3.831,2.64 -8.69,4.535 -14.087,4.535 l 0,0 c -2.58,0 -4.316,-0.689 -4.978,-1.198 l 0,0 c -0.68,-0.706 -1.479,-1.783 -2.167,-3.006 l 0,0 c -0.731,-1.299 -1.314,-2.613 -1.694,-4.115 l 0,0 c 0.317,0.359 1.688,1.385 4.469,1.385 l 0,0 c 5.479,0 11.277,-2.795 15.861,-6.244 l 0,0 c -3.476,-8.042 -9.231,-14.486 -12.857,-14.486 l 0,0 c -0.087,0 -0.213,0.006 -0.251,0.022 l 0,0 c 1.734,-1.19 4.094,-2.23 6.332,-2.638 l 0,0 c 4.124,0.442 9.377,4.833 12.646,11.562 l 0,0 c 1.941,-2.37 3.154,-4.661 3.154,-6.26 l 0,0 c 0,-0.39 -0.078,-0.665 -0.136,-0.797 l 0,0 c 1.445,1.372 2.659,2.985 3.576,4.777 l 0,0 c 0.065,0.247 0.158,0.823 0.158,1.392 l 0,0 c 0,2.579 -1.48,6.126 -4.063,9.444 l 0,0 c 0.251,1.574 0.387,3.21 0.387,4.895 l 0,0 c 0,4.476 -0.993,5.756 -1.33,6.226 l 0,0 c -0.938,0.735 -1.704,1.227 -2.613,1.709 l 0,0 c -1.028,0.543 -2.126,1.01 -3.363,1.353 l 0,0 c 0.295,-0.202 1.311,-0.907 1.311,-4.308"/>
                        </g>
                    </g>
                </g>
            </g>
        </g>
        <g id="g3694" transform="matrix(2.686538,0,0,-2.686538,-841.97995,2594.0603)">
            <g clip-path="url(#clipPath3698)" id="g3696">
                <g id="g3702">
                    <g id="g3704"/>
                    <g id="g3742">
                        <g style="opacity:0.80000299" id="g3744" clip-path="url(#clipPath3706)">
                            <g id="g3746">
                                <g id="g3748">
                                    <g id="g3750">
                                        <g id="g3752">
                                            <g id="g3754" clip-path="url(#clipPath3714)">
                                                <path id="path3756" style="fill:url(#linearGradient3718);stroke:none" d="m 535.173,806.506 c -0.13,-0.168 -0.384,-0.524 -0.553,-0.768 l 0,0 c 0.465,0.438 2.145,1.261 5.102,1.261 l 0,0 c 13.748,0 24.59,-12.65 24.59,-19.744 l 0,0 c 0,-0.184 -0.04,-0.635 -0.194,-0.993 l 0,0 c 0.127,0.201 0.291,0.45 0.366,0.58 l 0,0 c 0.184,0.327 0.195,0.849 0.195,1.129 l 0,0 c 0,7.238 -10.72,19.668 -24.494,19.668 l 0,0 c -3.184,0 -4.454,-0.733 -5.012,-1.133 m -1.282,-1.966 c 0,0.01 -0.336,-0.59 -0.421,-0.787 l 0,0 c 0.406,0.3 1.804,1.271 4.771,1.271 l 0,0 c 14.791,0 25.036,-13.493 25.036,-19.222 l 0,0 c 0,-0.276 -0.042,-0.713 -0.189,-0.964 l 0,0 c 0.188,0.236 0.34,0.433 0.44,0.573 l 0,0 c 0.216,0.295 0.168,0.915 0.168,1.098 l 0,0 c 0,5.609 -10.054,19.215 -24.857,19.215 l 0,0 c -3.065,0 -4.399,-0.742 -4.948,-1.184 m -1.021,-2.079 c -0.075,-0.233 -0.167,-0.458 -0.254,-0.674 l 0,0 c 0.339,0.254 1.796,1.361 4.746,1.361 l 0,0 c 13.204,0 24.842,-12.924 24.842,-18.735 l 0,0 c 0,-0.223 -0.049,-0.569 -0.157,-0.78 l 0,0 c 0.127,0.132 0.252,0.267 0.373,0.403 l 0,0 c 0.124,0.138 0.174,0.798 0.174,0.896 l 0,0 c 0,5.877 -11.222,18.895 -24.913,18.895 l 0,0 c -3.098,0 -4.458,-1.083 -4.811,-1.366"/>
                                            </g>
                                        </g>
                                    </g>
                                </g>
                            </g>
                            <g id="g3758">
                                <g id="g3760">
                                    <g id="g3762">
                                        <g id="g3764">
                                            <g id="g3766" clip-path="url(#clipPath3730)">
                                                <path id="path3768" style="fill:url(#linearGradient3734);stroke:none" d="m 556.606,807.981 c 0,-14.327 -10.711,-26.971 -15.977,-27.579 l 0,0 c 0.202,-0.115 0.367,-0.202 0.572,-0.307 l 0,0 c 6.943,1.487 15.992,14.586 15.992,27.642 l 0,0 c 0,2.4 -0.712,4.004 -1.06,4.375 l 0,0 c -0.198,0.084 -0.451,0.187 -0.65,0.26 l 0,0 c 0.51,-0.491 1.123,-2.175 1.123,-4.391 m 1.605,-1.292 c 0,-13.425 -9.05,-25.659 -16.149,-27.009 l 0,0 c 0.226,-0.1 0.414,-0.18 0.607,-0.259 l 0,0 c 8.091,1.573 16.155,14.306 16.155,26.999 l 0,0 c 0,2.504 -0.837,4.632 -1.206,4.982 l 0,0 c -0.208,0.113 -0.466,0.244 -0.626,0.32 l 0,0 c 0.229,-0.232 1.219,-2.042 1.219,-5.033 m 1.608,-0.681 c 0,-14.207 -8.183,-25.529 -16.148,-26.964 l 0,0 c 0.287,-0.085 0.473,-0.152 0.74,-0.225 l 0,0 c 8.494,1.21 16.04,13.666 16.04,26.527 l 0,0 c 0,2.962 -0.951,4.777 -1.279,5.116 l 0,0 c -0.199,0.134 -0.392,0.249 -0.62,0.401 l 0,0 c 0.256,-0.222 1.267,-2.049 1.267,-4.855"/>
                                            </g>
                                        </g>
                                    </g>
                                </g>
                            </g>
                        </g>
                    </g>
                </g>
                <g transform="translate(423.0719,804.4005)" id="g3770">
                    <path id="path3772" style="fill:#da1125;fill-opacity:1;fill-rule:nonzero;stroke:none" d="m 0,0 c 0,0.588 -0.281,0.868 -0.841,0.868 l -2.608,0 C -4.037,0.868 -4.289,0.56 -4.289,0 l 0,-11.55 c 0,-1.178 -0.757,-1.711 -1.878,-1.711 -1.29,0 -1.542,0.281 -2.075,0.281 -0.336,0 -0.616,-0.14 -0.728,-0.673 l -0.309,-1.654 c -0.112,-0.532 0.196,-0.814 0.617,-0.952 0.56,-0.197 2.074,-0.365 3.167,-0.365 3.505,0 5.495,1.682 5.495,5.467 L 0,0 Z m 54.102,-1.347 c 1.262,1.627 3.279,2.467 6.42,2.467 0.869,0 1.878,-0.056 2.522,-0.224 0.394,-0.112 0.449,-0.392 0.394,-0.813 L 63.044,-1.823 C 62.932,-2.187 62.848,-2.3 62.568,-2.3 c -0.056,0 -0.139,0.029 -0.224,0.029 -0.757,0 -0.533,0.112 -1.374,0.112 -1.57,0 -2.411,-0.393 -2.97,-1.01 -0.73,-0.812 -0.758,-1.681 -0.758,-3.784 l 0,-8.55 c 0,-0.56 -0.252,-0.87 -0.84,-0.87 l -2.608,0 c -0.56,0 -0.841,0.281 -0.841,0.87 l 0,8.41 c 0,3.112 0.168,4.457 1.149,5.746 m -8.353,-4.737 -7.906,0 c 0.084,0.56 0.253,1.094 0.505,1.627 0.673,1.4 2.075,2.325 3.784,2.325 2.215,0 3.617,-1.598 3.617,-3.868 l 0,-0.084 z m 4.093,-0.085 c -0.226,2.271 -1.067,4.15 -2.44,5.383 -1.345,1.177 -3.167,1.906 -5.354,1.906 -1.794,0 -3.84,-0.532 -5.522,-1.906 -1.822,-1.485 -3.195,-4.008 -3.195,-7.175 0,-2.635 0.897,-4.907 2.466,-6.336 1.542,-1.43 3.728,-2.327 6.364,-2.327 2.466,0 5.102,0.785 6.363,1.571 0.337,0.222 0.504,0.419 0.392,0.756 l -0.729,2.045 c -0.111,0.337 -0.476,0.422 -0.785,0.282 -0.672,-0.309 -0.672,-0.393 -1.373,-0.645 -1.149,-0.42 -1.991,-0.617 -3.14,-0.617 -1.906,0 -3.139,0.589 -3.98,1.57 -0.617,0.701 -0.953,1.514 -1.037,2.495 l 11.408,0 c 0.421,0 0.618,0.28 0.618,0.784 l 0,0.814 c 0,0.392 -0.028,1.036 -0.056,1.4 m 26.406,-1.569 c 0,2.972 -1.149,5.606 -4.205,5.606 -3.056,0 -4.233,-2.634 -4.233,-5.606 0,-2.972 1.177,-5.634 4.233,-5.634 3.056,0 4.205,2.662 4.205,5.634 m 4.514,0 c 0,-5.102 -3.617,-8.886 -8.775,-8.886 -5.074,0 -8.662,3.672 -8.662,8.774 0,5.046 3.42,8.97 8.662,8.97 5.158,0 8.775,-3.727 8.775,-8.858 m 1.289,7.906 c -0.14,0.504 0.028,0.7 0.336,0.7 l 3.616,0 c 0.42,0 0.589,-0.168 0.785,-0.645 0.785,-1.821 1.991,-3.896 3.027,-5.101 0.196,0.195 1.822,1.989 3.478,5.101 0.307,0.588 0.419,0.645 0.812,0.645 l 2.803,0 c 0.251,0 0.561,-0.141 0.392,-0.617 -1.121,-3.308 -3.673,-6.196 -5.074,-7.709 1.515,-1.457 4.261,-4.905 5.55,-8.241 0.113,-0.337 0.057,-0.674 -0.588,-0.674 l -3.364,0 c -0.365,0 -0.589,0 -0.841,0.618 -0.868,2.102 -2.215,4.317 -3.728,5.746 l 0.224,0.03 c -1.626,-1.683 -2.972,-3.954 -3.812,-5.776 -0.225,-0.504 -0.365,-0.618 -0.841,-0.618 l -3.084,0 c -0.196,0 -0.42,0.225 -0.28,0.646 0.841,2.382 2.888,5.718 5.355,7.933 -1.964,2.383 -4.038,5.523 -4.766,7.962 m -65.316,0 c -0.14,0.504 0,0.7 0.365,0.7 l 3.588,0 c 0.42,0 0.589,-0.141 0.812,-0.645 0.785,-1.821 1.99,-3.896 3,-5.101 l 0.028,0 c 0.196,0.195 1.794,1.962 3.448,5.101 0.309,0.588 0.421,0.645 0.813,0.645 l 2.803,0 c 0.252,0 0.561,-0.141 0.393,-0.617 -1.093,-3.308 -3.644,-6.196 -5.046,-7.709 1.486,-1.457 4.233,-4.905 5.522,-8.241 0.113,-0.337 0.056,-0.674 -0.588,-0.674 l -3.336,0 c -0.365,0 -0.617,0.029 -0.869,0.59 -0.841,2.13 -2.186,4.345 -3.7,5.774 l 0.195,0.03 c -1.654,-1.712 -2.943,-3.927 -3.783,-5.776 -0.225,-0.504 -0.421,-0.618 -0.87,-0.618 l -3.055,0 c -0.225,0 -0.421,0.225 -0.281,0.646 0.869,2.466 2.776,5.634 5.326,7.933 -1.962,2.383 -4.036,5.523 -4.765,7.962 m -52.841,-10.177 6.476,0 c 0.56,0 0.813,0.253 0.813,0.786 l 0,1.57 c 0,0.56 -0.281,0.784 -0.813,0.784 l -6.476,0 0,2.943 c 0,1.094 0.673,1.514 1.626,1.514 l 5.382,0 c 0.617,0 0.841,0.141 0.925,0.701 l 0.253,1.794 c 0.083,0.561 -0.141,0.785 -0.729,0.785 l -6.7,0 c -3.167,0 -5.046,-1.626 -5.046,-5.046 l 0,-11.325 c 0,-0.589 0.281,-0.87 0.841,-0.87 l 2.608,0 c 0.588,0 0.84,0.31 0.84,0.87 l 0,5.494 z m 17.885,-3.391 c -2.635,0 -3.364,1.485 -3.364,3.476 l 0,9.924 c 0,0.588 -0.28,0.868 -0.841,0.868 l -2.607,0 c -0.589,0 -0.84,-0.308 -0.84,-0.868 l 0,-9.756 c 0,-5.69 3.615,-6.868 7.399,-6.868 3.897,0 7.962,1.262 7.962,7.12 l 0,9.504 c 0,0.588 -0.281,0.868 -0.841,0.868 l -2.607,0 c -0.589,0 -0.841,-0.308 -0.841,-0.868 l 0,-10.121 c 0,-1.905 -0.869,-3.279 -3.42,-3.279 M 4.121,0 c 0,0.56 0.252,0.868 0.841,0.868 l 2.607,0 c 0.56,0 0.84,-0.28 0.84,-0.868 l 0,-15.503 c 0,-0.56 -0.251,-0.87 -0.84,-0.87 l -2.607,0 c -0.561,0 -0.841,0.281 -0.841,0.87 L 4.121,0 Z"/>
                </g>
            </g>
        </g>
    </g>
</svg>